<svg xmlns="http://www.w3.org/2000/svg" width="482" height="257" viewBox="0 0 482 257" overflow="visible"><path fill="none" d="M220.155 172.167h78.678v16.641h-78.678z"/><text transform="translate(220.155 187.665)" fill="#FFF" font-family="'MyriadPro-Regular'" font-size="21.829">00:00:01</text><path opacity=".31" fill="#BCBCBC" d="M34.876 148.245c0-2.414 1.947-4.381 4.348-4.381h217.493l-24.191-47.955h-27.628c-1.197 0-2.179-.985-2.179-2.201v-4.316c0-1.234.984-2.201 2.199-2.201h23.208L186.342 4.36H76.273C37.76 4.36 6.539 35.604 6.539 74.126v69.738H0v45.775h6.539v47.955H0v19.244h34.876V148.245zm141.685-63.234a6.541 6.541 0 0 1 6.54 6.539 6.54 6.54 0 0 1-13.08 0 6.54 6.54 0 0 1 6.54-6.539z"/><circle fill="#8ABBE5" cx="196.885" cy="180.487" r="8.243"/><path opacity=".31" fill="#1E1E1E" d="M228.298 87.19l-.172-.352h53.954c.684 0 1.209.414 1.55.984.403.398.65.953.65 1.568v4.316a2.187 2.187 0 0 1-2.197 2.201h-49.557l24.191 47.955h.152l-.152-.303h193.237c1.174 0 2.146.551 2.837 1.394.917.804 1.511 1.972 1.511 3.29v108.594h27.427V74.126c0-38.529-31.224-69.766-69.733-69.766h-8.738V0h-77.562v4.36H186.342l41.785 82.83h.171zm14.747-43.595c.153 0 .303.016.454.023.152-.007.302-.023.455-.023 5.417 0 9.809 4.392 9.809 9.809 0 5.418-4.392 9.811-9.809 9.811-.153 0-.303-.016-.455-.023-.151.007-.301.023-.454.023-5.418 0-9.811-4.393-9.811-9.811s4.393-9.809 9.811-9.809z"/></svg>