<svg class="svgPhone" opacity=".7" version="1.1"
	 xmlns="http://www.w3.org/2000/svg" xmlns:xlink="http://www.w3.org/1999/xlink" xmlns:a="http://ns.adobe.com/AdobeSVGViewerExtensions/3.0/"
	 x="0px" y="0px" viewBox="0 0 482 257" overflow="visible" enable-background="new 0 0 482 257"
	 xml:space="preserve">
<defs>
</defs>
<rect class="svgPhone__textRect" x="220.155" y="172.167" fill="none" width="78.678" height="16.641"/>
<text class="svgPhone__text" opacity=".7" transform="matrix(1 0 0 1 220.1548 187.665)" fill="#FFFFFF" font-family="'franklin-gothic-urw'" font-size="21.829"><tspan class="svgPhone__text--hr">00</tspan>:<tspan class="svgPhone__text--min">00</tspan>:<tspan class="svgPhone__text--sec">00</tspan></text>
<path class="svgPhone__part--left" opacity="1" fill="#3a4f65" d="M34.876,148.245c0-2.414,1.947-4.381,4.348-4.381h217.493l-24.191-47.955h-27.628
	c-1.197,0-2.179-0.985-2.179-2.201v-4.316c0-1.234,0.984-2.201,2.199-2.201h23.208L186.342,4.36H76.273
	C37.76,4.36,6.539,35.604,6.539,74.126v69.738H0v45.775h6.539v47.955H0v19.244h34.876V148.245z M176.561,85.011
	c3.611,0,6.54,2.929,6.54,6.539c0,3.611-2.929,6.539-6.54,6.539s-6.54-2.928-6.54-6.539
	C170.021,87.939,172.95,85.011,176.561,85.011z"/>
<circle class="svgPhone__recCircle" opacity=".7" fill="#82baf3" cx="196.885" cy="180.487" r="8.243"/>
<path class="svgPhone__part--right" opacity="1" fill="#324150" d="M228.298,87.19l-0.172-0.352h53.954c0.684,0,1.209,0.414,1.55,0.984
	c0.403,0.398,0.65,0.953,0.65,1.568v4.316c0,1.235-0.984,2.201-2.197,2.201h-0.91h-26.529h-0.909h-21.209l24.191,47.955h0.152
	l-0.152-0.303h193.237c1.174,0,2.146,0.551,2.837,1.394c0.917,0.804,1.511,1.972,1.511,3.29v108.594h27.427V74.126
	c0-38.529-31.224-69.766-69.733-69.766h-7.828h-0.91V0h-77.562v4.36h-0.909H186.342l41.785,82.83H228.298z M243.045,43.595
	c0.153,0,0.303,0.016,0.454,0.023c0.152-0.007,0.302-0.023,0.455-0.023c5.417,0,9.809,4.392,9.809,9.809
	c0,5.418-4.392,9.811-9.809,9.811c-0.153,0-0.303-0.016-0.455-0.023c-0.151,0.007-0.301,0.023-0.454,0.023
	c-5.418,0-9.811-4.393-9.811-9.811C233.234,47.986,237.627,43.595,243.045,43.595z"/>
</svg>
